<svg xmlns="http://www.w3.org/2000/svg" viewBox="0 0 37 38">
  <g transform="matrix(.26458333 0 0 .26458333 -272.52083 -103.1875)">
    <path d="m1104.7 423.2c-23.2-2.6-42.9 15.5-42.9 38.2 0 13 6.4 24.4 16.3 31.4 1.7 1.2 2.8 3.2 2.8 5.3v20.8c0 7.7 6.2 13.9 13.8 13.9h13c7.6 0 13.8-6.2 13.8-13.9v-22.1c0-2 .9-3.9 2.5-5.1 9.9-7.8 15.9-20.3 14.5-34.2-1.8-17.8-16-32.2-33.8-34.3zm.5 101.3h-8.2c-4.8 0-8.7-3.9-8.7-8.7v-1h25.7v1c0 4.8-4 8.7-8.8 8.7zm16.3-41.1c-.9.9-1.8 1.7-2.8 2.4-3 2.3-4.7 6-4.7 9.8v11.7h-25.7V497.1c0-4.2-2.1-8.1-5.5-10.5-.7-.5-1.3-1-2-1.5-7-5.8-11.4-14.6-11.1-24.4.4-15.9 13.4-29.1 29.2-29.8 17.5-.8 31.9 13.2 31.9 30.6 0 8.6-3.6 16.4-9.3 21.9z" fill="#ffc000" />
    <path d="M1048.7 469.1h-11c-2.4 0-4.3-1.9-4.3-4.3s1.9-4.3 4.3-4.3h11c2.4 0 4.3 1.9 4.3 4.3s-1.9 4.3-4.3 4.3zM1161.7 469.1h-11c-2.4 0-4.3-1.9-4.3-4.3s1.9-4.3 4.3-4.3h11c2.4 0 4.3 1.9 4.3 4.3s-2 4.3-4.3 4.3zM1104 398.5v11c0 2.4-1.9 4.3-4.3 4.3s-4.3-1.9-4.3-4.3v-11c0-2.4 1.9-4.3 4.3-4.3s4.3 1.9 4.3 4.3zM1149.5 422.1l-7.8 7.8c-1.7 1.7-4.4 1.7-6.1 0s-1.7-4.4 0-6.1l7.8-7.8c1.7-1.7 4.4-1.7 6.1 0s1.7 4.5 0 6.1zM1048.5 422.1l7.8 7.8c1.7 1.7 4.4 1.7 6.1 0s1.7-4.4 0-6.1l-7.8-7.8c-1.7-1.7-4.4-1.7-6.1 0s-1.7 4.5 0 6.1z" fill="#ffc000" />
    <path d="m1111.6 470.9c.3-1.2 8.3-27 8.3-27h-8.3s-.5 1.2-1.4 3.3c-.9-1.4-3-5.2-8.9-5.2-12.7.9-21.1 14.1-20.9 24.5 0 9.5 3.4 13.5 6 16.1 1.8 1.8 4.2 3 6.8 2.9 4.6-.2 7.8-3.8 9.5-6.1 5.8 12.2 16.2-2.5 16.2-2.5v-5.2s-1.7 0-2.6 0c-3.4 5.7-5.7 2.7-4.7-.8zm-22.8-.3c-2-11.8 5.9-18.9 10.3-20.3 2.9-1 7.9 0 8.6 3.6-.7 2.7-2.3 12.6-7.5 19.7-.6 1.2-8.6 6.7-11.4-3z" fill="#ffc000" />
    <path d="m1101.3 419.9c-23.2-2.6-42.9 15.5-42.9 38.2 0 13 6.4 24.4 16.3 31.4 1.7 1.2 2.8 3.2 2.8 5.3v20.8c0 7.7 6.2 13.9 13.8 13.9h13c7.6 0 13.8-6.2 13.8-13.9v-22.1c0-2 .9-3.9 2.5-5.1 9.9-7.8 15.9-20.3 14.5-34.2-1.8-17.8-16-32.3-33.8-34.3zm.6 101.3h-8.2c-4.8 0-8.7-3.9-8.7-8.7v-1h25.7v1c-.1 4.7-4 8.7-8.8 8.7zm16.2-41.2c-.9.9-1.8 1.7-2.8 2.4-3 2.3-4.7 6-4.7 9.8v11.7h-25.7V493.7c0-4.2-2.1-8.1-5.5-10.5-.7-.5-1.3-1-2-1.5-7-5.8-11.4-14.6-11.1-24.4.4-15.9 13.4-29.1 29.2-29.8 17.5-.8 31.9 13.2 31.9 30.6 0 8.6-3.5 16.4-9.3 21.9z" fill="#0077ff" />
    <path d="M1045.3 465.7h-11c-2.4 0-4.3-1.9-4.3-4.3s1.9-4.3 4.3-4.3h11c2.4 0 4.3 1.9 4.3 4.3s-1.9 4.3-4.3 4.3zM1158.3 465.7h-11c-2.4 0-4.3-1.9-4.3-4.3s1.9-4.3 4.3-4.3h11c2.4 0 4.3 1.9 4.3 4.3s-1.9 4.3-4.3 4.3zM1100.6 395.1v11c0 2.4-1.9 4.3-4.3 4.3s-4.3-1.9-4.3-4.3v-11c0-2.4 1.9-4.3 4.3-4.3s4.3 2 4.3 4.3zM1146.1 418.8l-7.8 7.8c-1.7 1.7-4.4 1.7-6.1 0s-1.7-4.4 0-6.1l7.8-7.8c1.7-1.7 4.4-1.7 6.1 0s1.7 4.4 0 6.1zM1045.1 418.8l7.8 7.8c1.7 1.7 4.4 1.7 6.1 0s1.7-4.4 0-6.1l-7.8-7.8c-1.7-1.7-4.4-1.7-6.1 0s-1.7 4.4 0 6.1z" fill="#0077ff" />
    <path d="m1108.3 467.5c.3-1.2 8.3-27 8.3-27h-8.3s-.5 1.2-1.4 3.3c-.9-1.4-3-5.2-8.9-5.2-12.7.9-21.1 14.1-20.9 24.5 0 9.5 3.4 13.5 6 16.1 1.8 1.8 4.2 3 6.8 2.9 4.6-.2 7.8-3.8 9.5-6.1 5.8 12.2 16.2-2.5 16.2-2.5v-5.2s-1.7 0-2.6 0c-3.5 5.8-5.8 2.7-4.7-.8zm-22.8-.3c-2-11.8 5.9-18.9 10.3-20.3 2.9-1 7.9 0 8.6 3.6-.7 2.7-2.3 12.6-7.5 19.7-.7 1.2-8.7 6.8-11.4-3z" fill="#0077ff" />
  </g>
</svg>
