<svg xmlns="http://www.w3.org/2000/svg" viewBox="0 0 281.87 221.8">
  <path d="M140.94 110.23c31.04.99 59.73-26.89 135.93-81.58C268.69 11.74 251.35 0 231.39 0H50.48C30.53 0 13.18 11.74 5 28.65c76.21 54.69 104.9 82.57 135.94 81.58Z" fill="#007b5e" fill-rule="evenodd" />
  <path d="M75.47 107.95c19.64 13.23 41 25.53 65.47 24.97 24.46.56 45.83-11.74 65.47-24.97 25.57-17.22 50.4-36.6 75.46-54.91v118.27c0 27.77-22.72 50.49-50.48 50.49H50.48C22.72 221.8 0 199.08 0 171.31V53.04c25.07 18.31 49.89 37.69 75.47 54.91Z" fill="#15c182" fill-rule="evenodd" />
</svg>
