<svg width="40" height="40" viewBox="0 0 40.1 40" fill="none" xmlns="http://www.w3.org/2000/svg">
  <path d="M31.5286 31.45C29.3331 33.6367 25.0458 34.94 20.05 34.94C15.0542 34.94 10.7602 33.6367 8.57471 31.45C6.38258 29.26 5.06931 24.9833 5.06931 20C5.06931 15.0167 6.38258 10.74 8.57471 8.55333C10.7635 6.36333 15.0575 5.05667 20.05 5.05667C25.0424 5.05667 29.3331 6.36667 31.5286 8.55333C33.7141 10.7433 35.0273 15.02 35.0273 20C35.0273 24.98 33.7141 29.26 31.5286 31.45ZM40.0966 19.9967C40.1 8.95333 31.1209 0 20.05 0C8.97906 0 0 8.95333 0 20C0 31.0467 8.97571 40 20.05 40C31.1243 40 40.1 31.0467 40.1 20L40.0966 19.9967Z" fill="#1B1A19" />
  <path d="M24.06 17.1737V22.8204C24.06 23.4737 23.5321 23.9971 22.8871 23.9971H17.213C16.5647 23.9971 16.04 23.4737 16.04 22.8204V17.1737C16.04 16.5204 16.5647 15.9971 17.213 15.9971H22.8871C23.5321 15.9971 24.06 16.5204 24.06 17.1737Z" fill="#1B1A19" />
  <path d="M29.5035 10.5667C27.9396 9.00667 24.2304 8 20.0466 8C15.8662 8 12.1536 9.01 10.5897 10.5667C9.0191 12.1233 8.0166 15.83 8.0166 20C8.0166 24.17 9.0191 27.8767 10.5897 29.4333C12.1536 30.99 15.8628 32 20.0466 32C24.227 32 27.9396 30.99 29.5035 29.4333C31.0741 27.8733 32.0766 24.17 32.0766 20C32.0766 15.83 31.0741 12.1233 29.5035 10.5667ZM25.8511 25.7467C25.5236 26.0733 24.5311 27.0633 20.0199 27.0633C15.5086 27.0633 14.5095 26.0767 14.1887 25.7467C13.8612 25.42 12.8687 24.43 12.8687 19.9333C12.8687 15.4367 13.8578 14.4467 14.1887 14.12C14.5095 13.7933 15.5019 12.81 20.0199 12.81C24.5378 12.81 25.5236 13.79 25.8511 14.12C26.1752 14.4467 27.1643 15.4367 27.1643 19.9333C27.1643 24.43 26.1752 25.42 25.8511 25.7467Z" fill="#1B1A19" />
</svg>
