<svg xmlns="http://www.w3.org/2000/svg" width="32" height="32" viewBox="0 0 32 32" version="1.2" baseProfile="tiny-ps">
  <title>bimi-mailpace2</title>
  <rect width="32" height="32" fill="#fff" />
  <path d="M15.3359.6563C13.8047 1.3242 12.207 3.4766 11.0703 4.6836 8.6836 7.2227 6.1016 9.5898 3.6523 12.0703 2.6211 13.1172.2891 14.6797.5234 16.332c.1953 1.3594 2.3438 2.8945 3.3047 3.8047 2.9102 2.7617 5.7305 5.6523 8.5469 8.5078 1.0313 1.0469 2.5742 3.3828 4.293 2.7305 1.3438-.5117 2.6602-2.3672 3.6641-3.375 2.7734-2.7812 5.582-5.5312 8.332-8.332 1.0273-1.0469 3.2031-2.4727 2.7813-4.168-.3164-1.2734-2.1328-2.4414-3.0156-3.3633-2.8672-2.9844-5.8398-5.875-8.7656-8.8008C18.6367 2.3086 17.0352-.0859 15.3359.6563Z" fill="#f3910d" />
  <path d="M15.168.5 15.332.668ZM16.668.5l.164.168ZM18.5 2.332l.168.168ZM12.832 2.832 13 3ZM10.832 4.832 11 5ZM24 7.832 24.168 8ZM26.5 10.332l.168.168ZM4.832 10.832 5 11ZM2.832 12.832 3 13ZM.5 15.168l.168.164ZM2.332 18.5l.168.168ZM7.832 24l.168.168ZM13.332 29.5l.168.168Z" fill="#ff0101" />
  <path d="M15 .668 15.168.832ZM14.832.832 15 1ZM14.332 1.332l.168.168ZM13.832 1.832 14 2ZM13.668 2l.164.168ZM13.168 2.5l.164.168ZM12.332 3.332l.168.168ZM11.332 4.332l.168.168ZM20.5 4.332l.168.168ZM10.5 5.168l.168.164ZM10 5.668l.168.164ZM9.832 5.832 10 6ZM22 5.832 22.168 6ZM9.332 6.332l.168.168ZM8.832 6.832 9 7ZM6.832 8.832 7 9ZM6.332 9.332l.168.168ZM5.832 9.832 6 10ZM4.668 11l.164.168ZM3.832 11.832 4 12ZM28.5 12.332l.168.168ZM3 12.668l.168.164ZM1.832 13.832 2 14ZM30 13.832 30.168 14ZM1.332 14.332l.168.168ZM.832 14.832 1 15ZM31 17l.168.168ZM29.5 18.5l.168.168ZM4.332 20.5l.168.168ZM26.5 21.5l.168.168ZM5.832 22 6 22.168ZM25 23l.168.168ZM24 24l.168.168ZM23 25l.168.168ZM9 25.168l.168.164ZM21.5 26.5l.168.168ZM11.832 28l.168.168ZM12 28.168l.168.164ZM12.832 29l.168.168ZM18.5 29.5l.168.168ZM13.5 29.668l.168.164ZM14.332 30.5l.168.168ZM15.168 31.332l.164.168ZM16.668 31.332l.164.168Z" fill="#eb6001" />
  <path d="M4.832 10.832 5 11ZM2.832 12.832 3 13Z" fill="#ffff01" />
</svg>
