<svg xmlns="http://www.w3.org/2000/svg" viewBox="0 0 96 96" fill="none">
  <g transform="translate(-164)">
    <path d="M202.02 13.38c-2.21.84-4.37 1.52-6.41 2.46-8.1 3.72-14.16 9.62-18.24 17.51-2.74 5.3-4.21 10.97-4.19 16.97 0 .61.02 1.22-.01 1.83-.07 1.11-.81 1.89-1.75 1.87-.89-.02-1.66-.78-1.66-1.84 0-1.79.03-3.59.2-5.36.69-6.93 2.95-13.33 6.83-19.1 5.92-8.8 14.02-14.62 24.25-17.42.92-.25 1.39-.69 1.72-1.58 1.72-4.55 5.96-7.15 10.7-6.64 4.78.51 8.48 3.88 9.15 8.67 1.01 7.31-4.72 12.6-11.54 11.73-4.7-.6-7.62-3.4-8.75-7.97-.06-.26-.14-.52-.3-1.11Zm17.23-1.07c0-3.88-3.1-7-6.92-6.97-3.67.03-6.79 3.18-6.84 6.92-.05 3.76 3.16 7.01 6.94 7.02 3.74.01 6.82-3.14 6.82-6.97Z" fill="none" stroke="#fff" stroke-miterlimit="10" stroke-width="4" />
    <path d="M211.93 89.66c7.12-.11 13.71-1.94 19.82-5.55 1.47-.87 2.4-.81 3.01.18.6.98.2 1.86-1.25 2.73-5.48 3.3-11.41 5.21-17.78 5.81-7.88.74-15.36-.71-22.46-4.13-3.9-1.88-7.38-4.38-10.5-7.37-.68-.65-1.26-.85-2.22-.67-6.86 1.24-12.38-3.62-12.29-10.03.07-4.79 2.59-8.43 6.99-9.84 4.44-1.42 8.99.08 11.69 3.84 2.86 3.99 2.4 9.6-1.07 13.14-.91.93-.94.96.05 1.85 5.72 5.13 12.38 8.3 19.97 9.46 2 .31 4.03.39 6.05.57Zm-26.57-19.03c.01-3.9-2.93-6.87-6.82-6.89-4-.01-6.98 2.89-6.99 6.83 0 3.78 3.1 6.91 6.88 6.94 3.75.03 6.91-3.12 6.93-6.88Z" fill="none" stroke="#fff" stroke-miterlimit="10" stroke-width="4" />
    <path d="M250.57 51.24c-.18-11.91-4.51-21.57-13.03-29.28-1.94-1.75-4.24-3.11-6.4-4.62-1.1-.76-1.39-1.88-.59-2.73.7-.74 1.52-.74 2.29-.2 2.27 1.59 4.66 3.04 6.73 4.86 6.6 5.77 10.95 12.98 13.11 21.49 1.73 6.82 1.7 13.65-.03 20.47-.22.87-.1 1.42.55 2.12 2.86 3.07 3.8 6.69 2.34 10.69-1.44 3.97-4.38 6.25-8.59 6.79-5.21.66-10.67-2.98-11.44-9.21-.66-5.37 3.5-10.65 8.95-11.27 1.28-.15 2.63.05 3.92.25.72.12.99-.03 1.1-.71.23-1.33.58-2.65.74-3.99.2-1.67.25-3.37.34-4.67Zm-11.61 19.37c.01 3.81 3.13 6.93 6.91 6.92 3.74-.02 6.86-3.2 6.85-7-.01-3.76-3.17-6.91-6.93-6.93-3.7-.02-6.83 3.2-6.82 7.01Z" fill="none" stroke="#fff" stroke-miterlimit="10" stroke-width="4" />
  </g>
</svg>
