<svg xmlns="http://www.w3.org/2000/svg" viewBox="0 0 124 114">
  <title>Netcore mark</title>
  <path fill="#FC5E02" d="M78.4 2.5 70.5 22.3 78.2 38.2 86.6 17.7H104.9V87.8C104.9 90.5 103.8 93 101.9 94.9 100 96.8 97.4 97.9 94.7 97.9 92.6 97.9 88.9 96.7 87.4 93.8L76.2 69.2 76.1 69.3 57.7 29 57.8 28.9 50 12.1C45.6 3.3 36.7 0 29.4 0 22.7 0 16.2 2.7 11.5 7.4 6.7 12.1 4 18.6 4 25.3L4.3 110.5H42.7L52.6 89.1 44.9 73.2 34.5 95.3H19.2V25.3C19.2 22.6 20.3 20.1 22.2 18.2 24.1 16.3 26.7 15.2 29.4 15.2 30.7 15.2 35.3 15.5 37 19.9L45.6 38.7 48.4 45 66.8 85.3C70 92.2 73.6 99.8 75.1 103.1 78.3 109.7 86.6 113.1 94.7 113.1 98 113.1 101.3 112.4 104.4 111.2 107.5 109.9 110.3 108.1 112.6 105.7 115 103.4 116.8 100.6 118.1 97.5 119.4 94.4 120 91.1 120 87.8V2.5H78.4Z" />
</svg>
