<svg xmlns="http://www.w3.org/2000/svg" viewBox="0 -1 18 29">
  <title>SendLayer mark</title>
  <path fill="#211FA6" d="M16.3207 2.56818C17.1127 3.01125 17.6044 3.85472 17.6044 4.77047V22.2295C17.6044 23.1453 17.1127 23.9887 16.3207 24.4318L12.2978 26.6822C10.6402 27.6095 8.60742 26.3964 8.60742 24.4799V2.52006C8.60742.603592 10.6402-.609495 12.2978.317766L16.3207 2.56818Z" />
  <path fill="#211FA6" d="M6.53831 4.6235C6.63308 4.80144 6.68269 5.00041 6.68269 5.20254V21.7829C6.68269 21.985 6.63308 22.184 6.53831 22.3619C5.94389 23.478 4.27002 23.0507 4.27002 21.7829V5.20253C4.27002 3.93466 5.94389 3.50737 6.53831 4.6235Z" />
  <path fill="#211FA6" d="M2.26829 7.92355C2.36306 8.10149 2.41267 8.30046 2.41267 8.50259V18.5099C2.41267 18.7121 2.36306 18.911 2.26829 19.089C1.67387 20.2051 0 19.7778 0 18.5099V8.50258C0 7.23471 1.67387 6.80742 2.26829 7.92355Z" />
</svg>
