<svg xmlns="http://www.w3.org/2000/svg" width="613" height="438" viewBox="0 0 613 438" fill="none">
  <path d="M260.11 438C226.465 438 194.863 425.092 171.05 401.605L9.91155 242.676C-3.30385 229.641-3.30385 208.516 9.91155 195.482L146.247 61.0152C159.463 47.981 180.882 47.981 194.097 61.0152C207.313 74.0494 207.313 95.1749 194.097 108.209L81.7025 219.063L218.932 354.411C229.945 365.273 244.565 371.255 260.142 371.255C275.72 371.255 290.34 365.273 301.353 354.411C313.994 341.944 320.952 325.383 320.952 307.784C320.952 290.153 313.994 273.593 301.353 261.157L254.045 214.498C204.95 166.076 204.95 87.2726 254.045 38.8508C279.455 13.7898 313.227 0 349.171 0C385.114 0 418.887 13.7898 444.296 38.8508L603.104 195.482C609.457 201.747 613 210.216 613 219.063C613 227.91 609.425 236.41 603.104 242.644L466.769 377.111C453.553 390.145 432.134 390.145 418.919 377.111C405.703 364.076 405.703 342.951 418.919 329.917L531.313 219.063L396.414 86.0132C383.773 73.5457 366.983 66.6823 349.139 66.6823C331.295 66.6823 314.504 73.5457 301.863 86.0132C279.135 108.43 279.135 144.888 301.863 167.304L349.171 213.963C401.617 265.69 401.617 349.877 349.171 401.605C325.389 425.092 293.755 438 260.11 438Z" fill="#fff" />
</svg>
